<?xml version="1.0" encoding="utf-8"?>
<!-- Generator: Adobe Illustrator 18.1.1, SVG Export Plug-In . SVG Version: 6.00 Build 0)  -->
<svg version="1.2" baseProfile="tiny" id="Layer_1" xmlns="http://www.w3.org/2000/svg" xmlns:xlink="http://www.w3.org/1999/xlink"
	 x="0px" y="0px" width="220px" height="459px" viewBox="-689 221 220 459" xml:space="preserve">
<g>
	<path fill="#333333" d="M-579,671.4c-8.9,0-16.2-7.3-16.2-16.2s7.3-16.2,16.2-16.2s16.2,7.3,16.2,16.2S-570.1,671.4-579,671.4z
		 M-469.1,245.9v409.2c0,13.7-11.1,24.8-24.8,24.8h-170.2c-13.7,0-24.8-11.1-24.8-24.8V245.9c0-13.7,11.1-24.8,24.8-24.8h170.2
		C-480.2,221.1-469.1,232.2-469.1,245.9z M-554.1,233.6c0,1.1,0.9,2,2,2c1.1,0,2-0.9,2-2c0-1.1-0.9-2-2-2
		C-553.2,231.6-554.1,232.5-554.1,233.6z M-607.9,234.3c0,0.6,0.5,1.1,1.1,1.1h44.8c0.6,0,1.1-0.5,1.1-1.1v-1.5
		c0-0.6-0.5-1.1-1.1-1.1h-44.8c-0.6,0-1.1,0.5-1.1,1.1V234.3z M-561.7,655.1c0-9.6-7.8-17.3-17.3-17.3s-17.3,7.8-17.3,17.3
		s7.8,17.3,17.3,17.3S-561.7,664.7-561.7,655.1z"/>
</g>
</svg>
